<svg width="16" height="16" viewBox="0 0 16 16" fill="none" xmlns="http://www.w3.org/2000/svg">
<path d="M6.72062 2.04693C5.12894 1.23445 3.29246 1.06741 1.59998 1.54549" stroke="#141414" stroke-miterlimit="10" stroke-linecap="round" stroke-linejoin="round"/>
<path d="M6.71994 0.959961V2.23996L5.43994 2.55996" stroke="#141414" stroke-miterlimit="10" stroke-linecap="round" stroke-linejoin="round"/>
<path d="M5.22012 8.42148L6.34012 6.48163C6.60508 6.02243 6.44797 5.43524 5.98877 5.17028C5.52957 4.90532 4.94236 5.06243 4.6774 5.52163L3.3974 7.7386C2.07196 10.0343 2.85852 12.97 5.1542 14.2954C7.44988 15.6208 10.3856 14.8343 11.711 12.5386L14.271 8.10468C14.536 7.64548 14.3789 7.05827 13.9197 6.79331C13.4605 6.52835 12.8732 6.68548 12.6083 7.14468L11.1683 9.63876L13.5683 5.48196C13.8332 5.02276 13.6761 4.43555 13.2169 4.17059C12.7577 3.90563 12.1705 4.06276 11.9056 4.52196L9.82557 8.12452L10.1456 7.57028L12.5456 3.41348C12.8105 2.95428 12.6534 2.36708 12.1942 2.10212C11.735 1.83716 11.1478 1.99428 10.8829 2.45348L8.48285 6.61028L8.16285 7.16452L10.5629 3.00772C10.8278 2.54852 10.6707 1.96132 10.2115 1.69636C9.75229 1.4314 9.16508 1.58852 8.90012 2.04772L6.50012 6.20452" stroke="#141414" stroke-miterlimit="10" stroke-linecap="round" stroke-linejoin="round"/>
</svg>
