<svg width="32" height="32" viewBox="0 0 32 32" fill="none" xmlns="http://www.w3.org/2000/svg">
<rect x="0.25" y="0.25" width="31.5" height="31.5" rx="1.75" stroke="#57656F" stroke-opacity="0.5" stroke-width="0.5"/>
<rect x="0.25" y="0.25" width="31.5" height="31.5" rx="1.75" stroke="url(#paint0_linear_49_173)" stroke-width="0.5"/>
<path d="M23.056 8.72568C22.8788 8.73346 22.7063 8.78278 22.5507 8.84508C22.3967 8.90696 21.5102 9.28534 20.2011 9.84505C18.8919 10.4048 17.1902 11.1336 15.5033 11.8564C12.1294 13.3019 8.81403 14.7241 8.81403 14.7241L8.83819 14.7149C8.83819 14.7149 8.63809 14.7817 8.43522 14.9231C8.33378 14.9938 8.22465 15.085 8.1353 15.218C8.04594 15.3511 7.98062 15.5396 8.00524 15.739C8.0917 16.4394 8.81758 16.638 8.81758 16.638L8.82042 16.6395L12.0599 17.7482C12.1424 18.0237 13.0424 21.0274 13.2403 21.6635C13.3497 22.0152 13.452 22.2181 13.5587 22.3564C13.6122 22.4257 13.6681 22.4793 13.73 22.5185C13.7546 22.5341 13.7805 22.5457 13.8061 22.5562H13.8075C13.8106 22.5575 13.8136 22.5577 13.8167 22.559L13.8082 22.5569C13.8142 22.5593 13.82 22.5633 13.826 22.5654C13.8375 22.5694 13.8446 22.5693 13.8594 22.5725C14.2304 22.702 14.5374 22.4616 14.5374 22.4616L14.5502 22.4517L16.5402 20.606L19.7697 23.124L19.8102 23.1425C20.3755 23.3935 20.8867 23.2535 21.1698 23.0231C21.4529 22.7927 21.5642 22.4957 21.5642 22.4957L21.5763 22.4645L23.9494 10.0959C24.0101 9.81922 24.0187 9.58004 23.9615 9.3639C23.9042 9.14776 23.765 8.95988 23.5905 8.85574C23.4159 8.7516 23.2332 8.7179 23.056 8.72568ZM23.0752 9.46553C23.1472 9.4622 23.2005 9.47043 23.2173 9.48046C23.2342 9.49049 23.2417 9.48917 23.2578 9.55011C23.274 9.61105 23.2827 9.7394 23.2387 9.94029L23.2372 9.94455L20.8777 22.2413C20.8721 22.2537 20.8229 22.3674 20.7107 22.4588C20.5961 22.552 20.4688 22.6247 20.1307 22.483L16.5992 19.7289L16.4997 19.6508L16.4975 19.6529L15.4414 18.8604L21.3766 11.8777C21.4222 11.8242 21.4513 11.7586 21.4604 11.6889C21.4696 11.6192 21.4583 11.5483 21.428 11.4848C21.3977 11.4214 21.3497 11.3681 21.2897 11.3313C21.2298 11.2946 21.1605 11.276 21.0902 11.2779C21.0215 11.2796 20.9547 11.3008 20.8976 11.339L12.3093 17.0645L9.06491 15.9536C9.06491 15.9536 8.74274 15.7744 8.72732 15.6494C8.72647 15.6425 8.72266 15.6488 8.7394 15.6239C8.75614 15.5989 8.79823 15.5569 8.85098 15.5201C8.9565 15.4466 9.07699 15.4021 9.07699 15.4021L9.08907 15.3979L9.10116 15.3929C9.10116 15.3929 12.4167 13.9706 15.7904 12.5252C17.4772 11.8024 19.1787 11.0741 20.4875 10.5145C21.796 9.95511 22.7414 9.55244 22.8215 9.52026C22.9126 9.48376 23.0032 9.46887 23.0752 9.46553ZM19.1393 13.3858L14.6383 18.6813L14.6362 18.6835C14.6292 18.6919 14.6225 18.7007 14.6163 18.7098C14.6091 18.7196 14.6025 18.7298 14.5964 18.7403C14.5711 18.7833 14.5549 18.8309 14.5488 18.8803C14.5488 18.8813 14.5488 18.8822 14.5488 18.8832L13.9624 21.5199C13.9527 21.4914 13.9459 21.481 13.9354 21.4474V21.4467C13.7492 20.8483 12.9001 18.0156 12.7826 17.6238L19.1393 13.3858ZM15.1465 19.5491L15.9553 20.1561L14.767 21.2577L15.1465 19.5491Z" fill="#57656F"/>
<defs>
<linearGradient id="paint0_linear_49_173" x1="2.36123" y1="33.8075" x2="39.8485" y2="21.2066" gradientUnits="userSpaceOnUse">
<stop stop-color="#23AED3"/>
<stop offset="1" stop-color="#73B655"/>
</linearGradient>
</defs>
</svg>
