<svg width="67" height="70" viewBox="0 0 67 70" fill="none" xmlns="http://www.w3.org/2000/svg">
<path d="M54.4705 22.608C55.7387 22.7056 57.0443 22.9126 58.2812 22.7222C61.163 22.2808 64.0136 21.6325 67.0037 21.0435C66.8954 22.8864 66.8677 25.0588 66.597 27.2027C66.4694 28.2115 66.0507 29.2846 65.4599 30.1186C63.9029 32.3148 61.512 32.4469 59.1139 32.1388C55.4403 31.6664 51.78 31.3916 48.1401 32.2863C47.4651 32.4528 46.8575 32.8871 45.8925 33.357C46.7119 33.9435 47.1499 34.3647 47.6733 34.611C50.0437 35.7305 52.5754 36.1231 55.1443 35.7067C57.9612 35.2498 60.7347 34.5408 63.5359 33.9888C64.4046 33.8174 65.3047 33.8043 66.3154 33.7068C65.1795 37.0011 64.2253 40.0765 63.0558 43.0698C61.9247 45.962 59.6541 47.3587 56.5172 46.8638C54.0121 46.4676 51.5466 45.8049 49.0763 45.2065C45.8756 44.432 42.6521 43.9145 39.3696 44.4998C38.7715 44.6069 38.0075 45.1232 37.8065 45.6372C37.6621 46.006 38.194 46.9387 38.6572 47.179C40.4381 48.1011 42.2586 49.3514 44.1646 49.5525C48.3206 49.9915 52.5381 49.8499 56.729 49.976C57.6074 50.0022 58.481 50.1593 59.6421 50.2877C56.6123 54.0484 53.7485 57.4688 49.8223 59.7626C46.8767 61.4841 43.7952 61.7161 40.6101 60.1445C38.4274 59.0678 36.1785 58.0601 33.8586 57.3332C32.138 56.7943 30.2621 56.7086 28.444 56.5289C28.0288 56.4873 27.5704 56.8859 27.1312 57.0822C27.3285 57.4676 27.438 57.9483 27.7401 58.2219C28.4849 58.8965 29.2694 59.552 30.1237 60.0802C33.2257 61.998 36.803 62.4977 40.2816 63.252C42.3681 63.7041 44.4365 64.1431 46.6072 65.6445C44.635 66.6843 42.9806 67.6479 41.2503 68.4522C30.7735 73.3252 20.577 65.9003 18.1597 57.4926C17.8276 56.3362 17.3679 56.1149 16.3476 56.0019C10.2699 55.325 5.67104 52.1128 2.2622 47.3218C-0.960136 42.7938 -0.311584 37.8565 1.55347 32.9763C1.93611 31.9746 2.42704 31.0121 2.86864 30.0318C3.06236 30.002 3.25609 29.9723 3.44981 29.9437C4.51951 32.0329 5.60606 34.1137 6.65169 36.2147C7.75267 38.4252 8.66234 40.7463 9.94622 42.8437C10.7981 44.2369 12.1097 45.3778 13.3274 46.514C13.6848 46.8471 14.4296 46.7745 14.9963 46.8887C15.0962 46.37 15.2297 45.8549 15.2803 45.3314C15.3019 45.1006 15.1491 44.8543 15.0829 44.6128C14.0385 40.8343 11.8955 37.6578 9.45409 34.6562C7.93678 32.7919 7.28461 30.7052 7.45908 28.3234C7.7238 24.7293 9.62375 21.8549 11.6356 19.0496C12.7847 17.4482 14.1071 15.9683 15.5534 14.1849C15.9445 15.2699 16.2862 15.954 16.4366 16.6773C17.0094 19.447 17.481 22.2356 18.0634 25.0029C18.7421 28.2282 19.4869 31.4606 22.2123 33.7163C22.7826 34.1886 23.6068 34.3587 24.3144 34.6681C24.5767 33.9471 25.052 33.2309 25.0652 32.5064C25.1193 29.4572 23.9883 26.6816 22.7898 23.9381C21.7009 21.4445 20.4772 18.9984 19.5639 16.4441C18.5892 13.7173 19.2378 11.5616 21.6804 9.93644C24.5261 8.04242 27.5896 6.46844 30.735 4.65414C30.8721 5.35606 31.0863 5.93188 31.0791 6.50532C31.0442 9.13338 30.9491 11.7614 30.8721 14.3895C30.7795 17.5744 31.6494 20.482 33.5169 23.0708C33.8105 23.4777 34.3953 23.6787 34.8453 23.975C35.1004 23.5205 35.5925 23.0553 35.5709 22.6151C35.4602 20.4082 35.3483 18.1871 34.9813 16.0123C34.5565 13.4841 33.7708 11.0155 33.3292 8.48975C33.0705 7.00262 33.4808 5.56426 34.7719 4.53635C37.401 2.44366 40.6583 2.36871 44.0081 1.56922C42.249 5.56664 42.8927 9.36419 43.6472 13.1403C43.7687 13.7471 44.3908 14.2563 44.7818 14.8095C45.1849 14.2931 45.8624 13.8149 45.9442 13.2533C46.3701 10.3183 46.748 7.36905 46.9333 4.41144C47.044 2.64234 47.6576 1.33009 49.3434 0.769741C50.531 0.374758 51.8185 0.126109 53.0687 0.0939869C57.0178 -0.0118971 60.9693 0.020225 64.8246 0C65.0736 1.60373 65.3949 3.48822 65.6524 5.38105C66.0639 8.41837 66.5729 11.4521 66.7702 14.5037C66.8978 16.4679 65.4815 17.6648 63.4745 17.9919C61.814 18.262 60.1306 18.5333 58.5435 19.0603C57.0142 19.5683 55.5787 20.3702 54.142 21.1209C53.8665 21.2648 53.6571 21.7669 53.6607 22.1012C53.6631 22.2808 54.1721 22.5854 54.4705 22.608ZM52.1061 15.5043C52.4117 15.1474 53.1806 15.0831 53.7449 15.0546C54.9987 14.9903 56.2597 15.0343 57.5135 14.6905H52.952C53.2516 14.1266 53.4598 13.7352 53.6667 13.3438C53.6138 13.2926 53.5608 13.2414 53.5067 13.1903C53.195 13.4425 52.8846 13.6947 52.4153 14.0742V6.9241C52.2505 6.92172 52.0856 6.91934 51.9208 6.91696C51.8847 9.10126 51.7728 11.2891 51.8462 13.4699C51.8835 14.5632 51.6067 15.3686 50.8727 16.1848C48.7418 18.5559 46.6962 21.0019 44.5219 23.5288C42.3476 20.4118 41.1047 17.0033 40.2792 13.4175C40.1252 13.4639 39.9712 13.5103 39.816 13.5567C40.4814 15.6922 41.083 17.8492 41.8351 19.9538C42.2562 21.1316 42.983 22.2011 43.4534 23.3659C43.6219 23.7834 43.646 24.4985 43.3957 24.8054C40.6775 28.1318 37.8908 31.4023 35.1172 34.6966C31.4593 30.729 25.5453 20.5058 24.6176 14.2622C24.1856 18.1181 26.3972 23.0363 34.2641 35.6508C32.7083 37.4829 31.1044 39.3615 29.5125 41.2483C27.9458 43.1055 26.39 44.9721 24.6453 47.0541C19.7576 40.1788 14.7244 33.6223 13.8015 24.6531C13.4838 28.4614 14.4187 31.6771 16.0203 34.6133C18.286 38.769 20.8442 42.77 23.3349 46.8019C23.8042 47.5621 23.8222 48.0987 23.2964 48.8137C21.0054 51.9272 17.9648 52.547 14.4139 50.7113C10.9329 48.9124 8.54923 46.1107 6.63966 42.8259C6.41224 42.4357 6.18121 42.0478 5.95139 41.6588C7.47352 46.6722 12.9303 53.2882 19.5386 52.4994C20.1487 52.4268 20.8333 52.641 20.938 53.6035C21.4867 58.6811 24.9629 61.427 29.2273 63.4364C30.6195 64.0919 32.1548 64.4512 33.1222 64.7772C30.7554 63.34 27.8808 61.841 25.2998 59.9505C23.1628 58.3849 22.0534 55.996 21.5998 53.3619C21.4265 52.3566 21.5132 51.5203 22.3579 50.7779C23.1893 50.0474 23.8896 49.173 24.6248 48.3854C32.1259 51.5334 39.4285 55.1596 47.8899 54.3351C39.816 54.159 32.6385 51.0967 25.4105 47.555C26.0098 46.8221 26.5223 46.1654 27.065 45.5337C29.4727 42.726 31.9154 39.9444 34.2858 37.1058C34.8766 36.3979 35.3591 36.3265 36.2194 36.6192C40.2143 37.979 44.2235 39.3056 48.2653 40.5214C51.2782 41.428 54.3754 41.5172 57.4811 40.9319C49.7718 41.0925 42.8013 38.4882 35.7478 35.4116C38.6657 31.8889 41.4344 28.4923 44.2993 25.1754C44.5689 24.8637 45.4821 24.8934 46.0188 25.041C49.2832 25.9356 52.5501 26.7113 55.9782 26.2806C56.2188 26.2509 56.4583 26.2104 56.3584 26.2259C52.8521 25.6656 49.051 25.0588 45.2499 24.4521C45.2295 24.2677 45.2078 24.0832 45.1873 23.8988C47.482 21.0911 49.7489 18.2596 52.1061 15.5043Z" fill="white"/>
<path d="M54.4705 22.608C55.7387 22.7056 57.0443 22.9126 58.2812 22.7222C61.163 22.2808 64.0136 21.6325 67.0037 21.0435C66.8954 22.8864 66.8677 25.0588 66.597 27.2027C66.4694 28.2115 66.0507 29.2846 65.4599 30.1186C63.9029 32.3148 61.512 32.4469 59.1139 32.1388C55.4403 31.6664 51.78 31.3916 48.1401 32.2863C47.4651 32.4528 46.8575 32.8871 45.8925 33.357C46.7119 33.9435 47.1499 34.3647 47.6733 34.611C50.0437 35.7305 52.5754 36.1231 55.1443 35.7067C57.9612 35.2498 60.7347 34.5408 63.5359 33.9888C64.4046 33.8174 65.3047 33.8043 66.3154 33.7068C65.1795 37.0011 64.2253 40.0765 63.0558 43.0698C61.9247 45.962 59.6541 47.3587 56.5172 46.8638C54.0121 46.4676 51.5466 45.8049 49.0763 45.2065C45.8756 44.432 42.6521 43.9145 39.3696 44.4998C38.7715 44.6069 38.0075 45.1232 37.8065 45.6372C37.6621 46.006 38.194 46.9387 38.6572 47.179C40.4381 48.1011 42.2586 49.3514 44.1646 49.5525C48.3206 49.9915 52.5381 49.8499 56.729 49.976C57.6074 50.0022 58.481 50.1593 59.6421 50.2877C56.6123 54.0484 53.7485 57.4688 49.8223 59.7626C46.8767 61.4841 43.7952 61.7161 40.6101 60.1445C38.4274 59.0678 36.1785 58.0601 33.8586 57.3332C32.138 56.7943 30.2621 56.7086 28.444 56.5289C28.0288 56.4873 27.5704 56.8859 27.1312 57.0822C27.3285 57.4676 27.438 57.9483 27.7401 58.2219C28.4849 58.8965 29.2694 59.552 30.1237 60.0802C33.2257 61.998 36.803 62.4977 40.2816 63.252C42.3681 63.7041 44.4365 64.1431 46.6072 65.6445C44.635 66.6843 42.9806 67.6479 41.2503 68.4522C30.7735 73.3252 20.577 65.9003 18.1597 57.4926C17.8276 56.3362 17.3679 56.1149 16.3476 56.0019C10.2699 55.325 5.67104 52.1128 2.2622 47.3218C-0.960136 42.7938 -0.311584 37.8565 1.55347 32.9763C1.93611 31.9746 2.42704 31.0121 2.86864 30.0318C3.06236 30.002 3.25609 29.9723 3.44981 29.9437C4.51951 32.0329 5.60606 34.1137 6.65169 36.2147C7.75267 38.4252 8.66234 40.7463 9.94622 42.8437C10.7981 44.2369 12.1097 45.3778 13.3274 46.514C13.6848 46.8471 14.4296 46.7745 14.9963 46.8887C15.0962 46.37 15.2297 45.8549 15.2803 45.3314C15.3019 45.1006 15.1491 44.8543 15.0829 44.6128C14.0385 40.8343 11.8955 37.6578 9.45409 34.6562C7.93678 32.7919 7.28461 30.7052 7.45908 28.3234C7.7238 24.7293 9.62375 21.8549 11.6356 19.0496C12.7847 17.4482 14.1071 15.9683 15.5534 14.1849C15.9445 15.2699 16.2862 15.954 16.4366 16.6773C17.0094 19.447 17.481 22.2356 18.0634 25.0029C18.7421 28.2282 19.4869 31.4606 22.2123 33.7163C22.7826 34.1886 23.6068 34.3587 24.3144 34.6681C24.5767 33.9471 25.052 33.2309 25.0652 32.5064C25.1193 29.4572 23.9883 26.6816 22.7898 23.9381C21.7009 21.4445 20.4772 18.9984 19.5639 16.4441C18.5892 13.7173 19.2378 11.5616 21.6804 9.93644C24.5261 8.04242 27.5896 6.46844 30.735 4.65414C30.8721 5.35606 31.0863 5.93188 31.0791 6.50532C31.0442 9.13338 30.9491 11.7614 30.8721 14.3895C30.7795 17.5744 31.6494 20.482 33.5169 23.0708C33.8105 23.4777 34.3953 23.6787 34.8453 23.975C35.1004 23.5205 35.5925 23.0553 35.5709 22.6151C35.4602 20.4082 35.3483 18.1871 34.9813 16.0123C34.5565 13.4841 33.7708 11.0155 33.3292 8.48975C33.0705 7.00262 33.4808 5.56426 34.7719 4.53635C37.401 2.44366 40.6583 2.36871 44.0081 1.56922C42.249 5.56664 42.8927 9.36419 43.6472 13.1403C43.7687 13.7471 44.3908 14.2563 44.7818 14.8095C45.1849 14.2931 45.8624 13.8149 45.9442 13.2533C46.3701 10.3183 46.748 7.36905 46.9333 4.41144C47.044 2.64234 47.6576 1.33009 49.3434 0.769741C50.531 0.374758 51.8185 0.126109 53.0687 0.0939869C57.0178 -0.0118971 60.9693 0.020225 64.8246 0C65.0736 1.60373 65.3949 3.48822 65.6524 5.38105C66.0639 8.41837 66.5729 11.4521 66.7702 14.5037C66.8978 16.4679 65.4815 17.6648 63.4745 17.9919C61.814 18.262 60.1306 18.5333 58.5435 19.0603C57.0142 19.5683 55.5787 20.3702 54.142 21.1209C53.8665 21.2648 53.6571 21.7669 53.6607 22.1012C53.6631 22.2808 54.1721 22.5854 54.4705 22.608ZM52.1061 15.5043C52.4117 15.1474 53.1806 15.0831 53.7449 15.0546C54.9987 14.9903 56.2597 15.0343 57.5135 14.6905H52.952C53.2516 14.1266 53.4598 13.7352 53.6667 13.3438C53.6138 13.2926 53.5608 13.2414 53.5067 13.1903C53.195 13.4425 52.8846 13.6947 52.4153 14.0742V6.9241C52.2505 6.92172 52.0856 6.91934 51.9208 6.91696C51.8847 9.10126 51.7728 11.2891 51.8462 13.4699C51.8835 14.5632 51.6067 15.3686 50.8727 16.1848C48.7418 18.5559 46.6962 21.0019 44.5219 23.5288C42.3476 20.4118 41.1047 17.0033 40.2792 13.4175C40.1252 13.4639 39.9712 13.5103 39.816 13.5567C40.4814 15.6922 41.083 17.8492 41.8351 19.9538C42.2562 21.1316 42.983 22.2011 43.4534 23.3659C43.6219 23.7834 43.646 24.4985 43.3957 24.8054C40.6775 28.1318 37.8908 31.4023 35.1172 34.6966C31.4593 30.729 25.5453 20.5058 24.6176 14.2622C24.1856 18.1181 26.3972 23.0363 34.2641 35.6508C32.7083 37.4829 31.1044 39.3615 29.5125 41.2483C27.9458 43.1055 26.39 44.9721 24.6453 47.0541C19.7576 40.1788 14.7244 33.6223 13.8015 24.6531C13.4838 28.4614 14.4187 31.6771 16.0203 34.6133C18.286 38.769 20.8442 42.77 23.3349 46.8019C23.8042 47.5621 23.8222 48.0987 23.2964 48.8137C21.0054 51.9272 17.9648 52.547 14.4139 50.7113C10.9329 48.9124 8.54923 46.1107 6.63966 42.8259C6.41224 42.4357 6.18121 42.0478 5.95139 41.6588C7.47352 46.6722 12.9303 53.2882 19.5386 52.4994C20.1487 52.4268 20.8333 52.641 20.938 53.6035C21.4867 58.6811 24.9629 61.427 29.2273 63.4364C30.6195 64.0919 32.1548 64.4512 33.1222 64.7772C30.7554 63.34 27.8808 61.841 25.2998 59.9505C23.1628 58.3849 22.0534 55.996 21.5998 53.3619C21.4265 52.3566 21.5132 51.5203 22.3579 50.7779C23.1893 50.0474 23.8896 49.173 24.6248 48.3854C32.1259 51.5334 39.4285 55.1596 47.8899 54.3351C39.816 54.159 32.6385 51.0967 25.4105 47.555C26.0098 46.8221 26.5223 46.1654 27.065 45.5337C29.4727 42.726 31.9154 39.9444 34.2858 37.1058C34.8766 36.3979 35.3591 36.3265 36.2194 36.6192C40.2143 37.979 44.2235 39.3056 48.2653 40.5214C51.2782 41.428 54.3754 41.5172 57.4811 40.9319C49.7718 41.0925 42.8013 38.4882 35.7478 35.4116C38.6657 31.8889 41.4344 28.4923 44.2993 25.1754C44.5689 24.8637 45.4821 24.8934 46.0188 25.041C49.2832 25.9356 52.5501 26.7113 55.9782 26.2806C56.2188 26.2509 56.4583 26.2104 56.3584 26.2259C52.8521 25.6656 49.051 25.0588 45.2499 24.4521C45.2295 24.2677 45.2078 24.0832 45.1873 23.8988C47.482 21.0911 49.7489 18.2596 52.1061 15.5043Z" fill="url(#paint0_linear_225_136)"/>
<defs>
<linearGradient id="paint0_linear_225_136" x1="33.5018" y1="0" x2="33.5018" y2="70.0032" gradientUnits="userSpaceOnUse">
<stop stop-color="white"/>
<stop offset="1" stop-color="#E7FFF3"/>
</linearGradient>
</defs>
</svg>
