<svg width="67" height="70" viewBox="0 0 67 70" fill="none" xmlns="http://www.w3.org/2000/svg">
<path d="M12.5332 22.608C11.2649 22.7056 9.95939 22.9126 8.72244 22.7222C5.84063 22.2808 2.9901 21.6325 0 21.0435C0.108294 22.8864 0.135969 25.0588 0.406702 27.2027C0.534248 28.2115 0.952983 29.2846 1.54378 30.1186C3.1008 32.3148 5.49168 32.4469 7.88978 32.1388C11.5633 31.6664 15.2237 31.3916 18.8635 32.2863C19.5386 32.4528 20.1462 32.8871 21.1112 33.357C20.2918 33.9435 19.8538 34.3647 19.3304 34.611C16.96 35.7305 14.4283 36.1231 11.8593 35.7067C9.04251 35.2498 6.26899 34.5408 3.4678 33.9888C2.59904 33.8174 1.699 33.8043 0.688265 33.7068C1.82414 37.0011 2.77833 40.0765 3.9479 43.0698C5.07897 45.962 7.34952 47.3587 10.4864 46.8638C12.9916 46.4676 15.4571 45.8049 17.9274 45.2065C21.1281 44.432 24.3516 43.9145 27.6341 44.4998C28.2321 44.6069 28.9962 45.1232 29.1971 45.6372C29.3415 46.006 28.8097 46.9387 28.3464 47.179C26.5656 48.1011 24.7451 49.3514 22.8391 49.5525C18.683 49.9915 14.4656 49.8499 10.2746 49.976C9.39627 50.0022 8.5227 50.1593 7.36155 50.2877C10.3914 54.0484 13.2551 57.4688 17.1814 59.7626C20.127 61.4841 23.2085 61.7161 26.3935 60.1445C28.5763 59.0678 30.8251 58.0601 33.145 57.3332C34.8657 56.7943 36.7416 56.7086 38.5597 56.5289C38.9748 56.4873 39.4333 56.8859 39.8725 57.0822C39.6751 57.4676 39.5656 57.9483 39.2636 58.2219C38.5188 58.8965 37.7343 59.552 36.88 60.0802C33.778 61.998 30.2007 62.4977 26.722 63.252C24.6356 63.7041 22.5672 64.1431 20.3965 65.6445C22.3686 66.6843 24.0231 67.6479 25.7534 68.4522C36.2302 73.3252 46.4266 65.9003 48.844 57.4926C49.1761 56.3362 49.6357 56.1149 50.6561 56.0019C56.7338 55.325 61.3326 52.1128 64.7415 47.3218C67.9638 42.7938 67.3153 37.8565 65.4502 32.9763C65.0676 31.9746 64.5766 31.0121 64.135 30.0318C63.9413 30.002 63.7476 29.9723 63.5539 29.9437C62.4842 32.0329 61.3976 34.1137 60.352 36.2147C59.251 38.4252 58.3413 40.7463 57.0574 42.8437C56.2055 44.2369 54.894 45.3778 53.6763 46.514C53.3189 46.8471 52.5741 46.7745 52.0074 46.8887C51.9075 46.37 51.7739 45.8549 51.7234 45.3314C51.7017 45.1006 51.8545 44.8543 51.9207 44.6128C52.9652 40.8343 55.1082 37.6578 57.5496 34.6562C59.0669 32.7919 59.7191 30.7052 59.5446 28.3234C59.2799 24.7293 57.3799 21.8549 55.3681 19.0496C54.219 17.4482 52.8966 15.9683 51.4502 14.1849C51.0592 15.2699 50.7175 15.954 50.5671 16.6773C49.9943 19.447 49.5226 22.2356 48.9403 25.0029C48.2616 28.2282 47.5168 31.4606 44.7914 33.7163C44.2211 34.1886 43.3968 34.3587 42.6893 34.6681C42.427 33.9471 41.9517 33.2309 41.9385 32.5064C41.8843 29.4572 43.0154 26.6816 44.2138 23.9381C45.3028 21.4445 46.5265 18.9984 47.4398 16.4441C48.4144 13.7173 47.7659 11.5616 45.3232 9.93644C42.4775 8.04242 39.414 6.46844 36.2687 4.65414C36.1315 5.35606 35.9174 5.93188 35.9246 6.50532C35.9595 9.13338 36.0545 11.7614 36.1315 14.3895C36.2242 17.5744 35.3542 20.482 33.4868 23.0708C33.1932 23.4777 32.6084 23.6787 32.1584 23.975C31.9033 23.5205 31.4111 23.0553 31.4328 22.6151C31.5435 20.4082 31.6554 18.1871 32.0224 16.0123C32.4471 13.4841 33.2329 11.0155 33.6745 8.48975C33.9332 7.00262 33.5229 5.56426 32.2318 4.53635C29.6026 2.44366 26.3454 2.36871 22.9955 1.56922C24.7547 5.56664 24.111 9.36419 23.3565 13.1403C23.235 13.7471 22.6129 14.2563 22.2218 14.8095C21.8187 14.2931 21.1413 13.8149 21.0595 13.2533C20.6335 10.3183 20.2557 7.36905 20.0704 4.41144C19.9597 2.64234 19.346 1.33009 17.6603 0.769741C16.4726 0.374758 15.1852 0.126109 13.935 0.0939869C9.98587 -0.0118971 6.03436 0.020225 2.17911 0C1.93003 1.60373 1.60876 3.48822 1.35126 5.38105C0.939747 8.41837 0.430768 11.4521 0.233433 14.5037C0.105887 16.4679 1.52213 17.6648 3.52917 17.9919C5.18967 18.262 6.87303 18.5333 8.46013 19.0603C9.98948 19.5683 11.425 20.3702 12.8617 21.1209C13.1372 21.2648 13.3466 21.7669 13.343 22.1012C13.3406 22.2808 12.8316 22.5854 12.5332 22.608ZM14.8976 15.5043C14.5919 15.1474 13.8231 15.0831 13.2587 15.0546C12.0049 14.9903 10.7439 15.0343 9.49012 14.6905H14.0517C13.7521 14.1266 13.5439 13.7352 13.3369 13.3438C13.3899 13.2926 13.4428 13.2414 13.497 13.1903C13.8086 13.4425 14.1191 13.6947 14.5883 14.0742V6.9241C14.7532 6.92172 14.918 6.91934 15.0829 6.91696C15.119 9.10126 15.2309 11.2891 15.1575 13.4699C15.1202 14.5632 15.3969 15.3686 16.1309 16.1848C18.2619 18.5559 20.3074 21.0019 22.4817 23.5288C24.656 20.4118 25.899 17.0033 26.7244 13.4175C26.8785 13.4639 27.0325 13.5103 27.1877 13.5567C26.5223 15.6922 25.9207 17.8492 25.1686 19.9538C24.7475 21.1316 24.0207 22.2011 23.5502 23.3659C23.3818 23.7834 23.3577 24.4985 23.608 24.8054C26.3262 28.1318 29.1129 31.4023 31.8864 34.6966C35.5443 30.729 41.4584 20.5058 42.3861 14.2622C42.8181 18.1181 40.6065 23.0363 32.7395 35.6508C34.2954 37.4829 35.8993 39.3615 37.4912 41.2483C39.0579 43.1055 40.6137 44.9721 42.3584 47.0541C47.2461 40.1788 52.2793 33.6223 53.2022 24.6531C53.5199 28.4614 52.5849 31.6771 50.9834 34.6133C48.7176 38.769 46.1595 42.77 43.6688 46.8019C43.1995 47.5621 43.1814 48.0987 43.7073 48.8137C45.9983 51.9272 49.0389 52.547 52.5897 50.7113C56.0708 48.9124 58.4544 46.1107 60.364 42.8259C60.5914 42.4357 60.8225 42.0478 61.0523 41.6588C59.5302 46.6722 54.0734 53.2882 47.465 52.4994C46.855 52.4268 46.1703 52.641 46.0657 53.6035C45.517 58.6811 42.0407 61.427 37.7764 63.4364C36.3842 64.0919 34.8489 64.4512 33.8814 64.7772C36.2482 63.34 39.1228 61.841 41.7038 59.9505C43.8408 58.3849 44.9502 55.996 45.4039 53.3619C45.5771 52.3566 45.4905 51.5203 44.6458 50.7779C43.8144 50.0474 43.1141 49.173 42.3789 48.3854C34.8777 51.5334 27.5751 55.1596 19.1138 54.3351C27.1877 54.159 34.3651 51.0967 41.5931 47.555C40.9939 46.8221 40.4813 46.1654 39.9387 45.5337C37.5309 42.726 35.0883 39.9444 32.7179 37.1058C32.1271 36.3979 31.6446 36.3265 30.7842 36.6192C26.7894 37.979 22.7801 39.3056 18.7384 40.5214C15.7254 41.428 12.6282 41.5172 9.52261 40.9319C17.2319 41.0925 24.2024 38.4882 31.2559 35.4116C28.338 31.8889 25.5693 28.4923 22.7043 25.1754C22.4348 24.8637 21.5215 24.8934 20.9849 25.041C17.7204 25.9356 14.4536 26.7113 11.0255 26.2806C10.7848 26.2509 10.5454 26.2104 10.6453 26.2259C14.1516 25.6656 17.9527 25.0588 21.7538 24.4521C21.7742 24.2677 21.7959 24.0832 21.8163 23.8988C19.5217 21.0911 17.2548 18.2596 14.8976 15.5043Z" fill="white"/>
<path d="M12.5332 22.608C11.2649 22.7056 9.95939 22.9126 8.72244 22.7222C5.84063 22.2808 2.9901 21.6325 0 21.0435C0.108294 22.8864 0.135969 25.0588 0.406702 27.2027C0.534248 28.2115 0.952983 29.2846 1.54378 30.1186C3.1008 32.3148 5.49168 32.4469 7.88978 32.1388C11.5633 31.6664 15.2237 31.3916 18.8635 32.2863C19.5386 32.4528 20.1462 32.8871 21.1112 33.357C20.2918 33.9435 19.8538 34.3647 19.3304 34.611C16.96 35.7305 14.4283 36.1231 11.8593 35.7067C9.04251 35.2498 6.26899 34.5408 3.4678 33.9888C2.59904 33.8174 1.699 33.8043 0.688265 33.7068C1.82414 37.0011 2.77833 40.0765 3.9479 43.0698C5.07897 45.962 7.34952 47.3587 10.4864 46.8638C12.9916 46.4676 15.4571 45.8049 17.9274 45.2065C21.1281 44.432 24.3516 43.9145 27.6341 44.4998C28.2321 44.6069 28.9962 45.1232 29.1971 45.6372C29.3415 46.006 28.8097 46.9387 28.3464 47.179C26.5656 48.1011 24.7451 49.3514 22.8391 49.5525C18.683 49.9915 14.4656 49.8499 10.2746 49.976C9.39627 50.0022 8.5227 50.1593 7.36155 50.2877C10.3914 54.0484 13.2551 57.4688 17.1814 59.7626C20.127 61.4841 23.2085 61.7161 26.3935 60.1445C28.5763 59.0678 30.8251 58.0601 33.145 57.3332C34.8657 56.7943 36.7416 56.7086 38.5597 56.5289C38.9748 56.4873 39.4333 56.8859 39.8725 57.0822C39.6751 57.4676 39.5656 57.9483 39.2636 58.2219C38.5188 58.8965 37.7343 59.552 36.88 60.0802C33.778 61.998 30.2007 62.4977 26.722 63.252C24.6356 63.7041 22.5672 64.1431 20.3965 65.6445C22.3686 66.6843 24.0231 67.6479 25.7534 68.4522C36.2302 73.3252 46.4266 65.9003 48.844 57.4926C49.1761 56.3362 49.6357 56.1149 50.6561 56.0019C56.7338 55.325 61.3326 52.1128 64.7415 47.3218C67.9638 42.7938 67.3153 37.8565 65.4502 32.9763C65.0676 31.9746 64.5766 31.0121 64.135 30.0318C63.9413 30.002 63.7476 29.9723 63.5539 29.9437C62.4842 32.0329 61.3976 34.1137 60.352 36.2147C59.251 38.4252 58.3413 40.7463 57.0574 42.8437C56.2055 44.2369 54.894 45.3778 53.6763 46.514C53.3189 46.8471 52.5741 46.7745 52.0074 46.8887C51.9075 46.37 51.7739 45.8549 51.7234 45.3314C51.7017 45.1006 51.8545 44.8543 51.9207 44.6128C52.9652 40.8343 55.1082 37.6578 57.5496 34.6562C59.0669 32.7919 59.7191 30.7052 59.5446 28.3234C59.2799 24.7293 57.3799 21.8549 55.3681 19.0496C54.219 17.4482 52.8966 15.9683 51.4502 14.1849C51.0592 15.2699 50.7175 15.954 50.5671 16.6773C49.9943 19.447 49.5226 22.2356 48.9403 25.0029C48.2616 28.2282 47.5168 31.4606 44.7914 33.7163C44.2211 34.1886 43.3968 34.3587 42.6893 34.6681C42.427 33.9471 41.9517 33.2309 41.9385 32.5064C41.8843 29.4572 43.0154 26.6816 44.2138 23.9381C45.3028 21.4445 46.5265 18.9984 47.4398 16.4441C48.4144 13.7173 47.7659 11.5616 45.3232 9.93644C42.4775 8.04242 39.414 6.46844 36.2687 4.65414C36.1315 5.35606 35.9174 5.93188 35.9246 6.50532C35.9595 9.13338 36.0545 11.7614 36.1315 14.3895C36.2242 17.5744 35.3542 20.482 33.4868 23.0708C33.1932 23.4777 32.6084 23.6787 32.1584 23.975C31.9033 23.5205 31.4111 23.0553 31.4328 22.6151C31.5435 20.4082 31.6554 18.1871 32.0224 16.0123C32.4471 13.4841 33.2329 11.0155 33.6745 8.48975C33.9332 7.00262 33.5229 5.56426 32.2318 4.53635C29.6026 2.44366 26.3454 2.36871 22.9955 1.56922C24.7547 5.56664 24.111 9.36419 23.3565 13.1403C23.235 13.7471 22.6129 14.2563 22.2218 14.8095C21.8187 14.2931 21.1413 13.8149 21.0595 13.2533C20.6335 10.3183 20.2557 7.36905 20.0704 4.41144C19.9597 2.64234 19.346 1.33009 17.6603 0.769741C16.4726 0.374758 15.1852 0.126109 13.935 0.0939869C9.98587 -0.0118971 6.03436 0.020225 2.17911 0C1.93003 1.60373 1.60876 3.48822 1.35126 5.38105C0.939747 8.41837 0.430768 11.4521 0.233433 14.5037C0.105887 16.4679 1.52213 17.6648 3.52917 17.9919C5.18967 18.262 6.87303 18.5333 8.46013 19.0603C9.98948 19.5683 11.425 20.3702 12.8617 21.1209C13.1372 21.2648 13.3466 21.7669 13.343 22.1012C13.3406 22.2808 12.8316 22.5854 12.5332 22.608ZM14.8976 15.5043C14.5919 15.1474 13.8231 15.0831 13.2587 15.0546C12.0049 14.9903 10.7439 15.0343 9.49012 14.6905H14.0517C13.7521 14.1266 13.5439 13.7352 13.3369 13.3438C13.3899 13.2926 13.4428 13.2414 13.497 13.1903C13.8086 13.4425 14.1191 13.6947 14.5883 14.0742V6.9241C14.7532 6.92172 14.918 6.91934 15.0829 6.91696C15.119 9.10126 15.2309 11.2891 15.1575 13.4699C15.1202 14.5632 15.3969 15.3686 16.1309 16.1848C18.2619 18.5559 20.3074 21.0019 22.4817 23.5288C24.656 20.4118 25.899 17.0033 26.7244 13.4175C26.8785 13.4639 27.0325 13.5103 27.1877 13.5567C26.5223 15.6922 25.9207 17.8492 25.1686 19.9538C24.7475 21.1316 24.0207 22.2011 23.5502 23.3659C23.3818 23.7834 23.3577 24.4985 23.608 24.8054C26.3262 28.1318 29.1129 31.4023 31.8864 34.6966C35.5443 30.729 41.4584 20.5058 42.3861 14.2622C42.8181 18.1181 40.6065 23.0363 32.7395 35.6508C34.2954 37.4829 35.8993 39.3615 37.4912 41.2483C39.0579 43.1055 40.6137 44.9721 42.3584 47.0541C47.2461 40.1788 52.2793 33.6223 53.2022 24.6531C53.5199 28.4614 52.5849 31.6771 50.9834 34.6133C48.7176 38.769 46.1595 42.77 43.6688 46.8019C43.1995 47.5621 43.1814 48.0987 43.7073 48.8137C45.9983 51.9272 49.0389 52.547 52.5897 50.7113C56.0708 48.9124 58.4544 46.1107 60.364 42.8259C60.5914 42.4357 60.8225 42.0478 61.0523 41.6588C59.5302 46.6722 54.0734 53.2882 47.465 52.4994C46.855 52.4268 46.1703 52.641 46.0657 53.6035C45.517 58.6811 42.0407 61.427 37.7764 63.4364C36.3842 64.0919 34.8489 64.4512 33.8814 64.7772C36.2482 63.34 39.1228 61.841 41.7038 59.9505C43.8408 58.3849 44.9502 55.996 45.4039 53.3619C45.5771 52.3566 45.4905 51.5203 44.6458 50.7779C43.8144 50.0474 43.1141 49.173 42.3789 48.3854C34.8777 51.5334 27.5751 55.1596 19.1138 54.3351C27.1877 54.159 34.3651 51.0967 41.5931 47.555C40.9939 46.8221 40.4813 46.1654 39.9387 45.5337C37.5309 42.726 35.0883 39.9444 32.7179 37.1058C32.1271 36.3979 31.6446 36.3265 30.7842 36.6192C26.7894 37.979 22.7801 39.3056 18.7384 40.5214C15.7254 41.428 12.6282 41.5172 9.52261 40.9319C17.2319 41.0925 24.2024 38.4882 31.2559 35.4116C28.338 31.8889 25.5693 28.4923 22.7043 25.1754C22.4348 24.8637 21.5215 24.8934 20.9849 25.041C17.7204 25.9356 14.4536 26.7113 11.0255 26.2806C10.7848 26.2509 10.5454 26.2104 10.6453 26.2259C14.1516 25.6656 17.9527 25.0588 21.7538 24.4521C21.7742 24.2677 21.7959 24.0832 21.8163 23.8988C19.5217 21.0911 17.2548 18.2596 14.8976 15.5043Z" fill="url(#paint0_linear_225_131)"/>
<defs>
<linearGradient id="paint0_linear_225_131" x1="33.5018" y1="0" x2="33.5018" y2="70.0032" gradientUnits="userSpaceOnUse">
<stop stop-color="white"/>
<stop offset="1" stop-color="#E7FFF3"/>
</linearGradient>
</defs>
</svg>
