<svg width="147" height="9" viewBox="0 0 147 9" fill="none" xmlns="http://www.w3.org/2000/svg">
<path d="M2.92163 8V1.664H0.773633V0.176H6.84563V1.664H4.69763V8H2.92163ZM14.0656 8V0.176H15.8296V3.188H18.5296V0.176H20.3056V8H18.5296V4.736H15.8296V8H14.0656ZM28.1515 8V0.176H33.0475V1.664H29.9155V3.236H32.5795V4.712H29.9155V6.512H33.1675V8H28.1515ZM52.5841 8.144C51.8721 8.144 51.2241 7.992 50.6401 7.688C50.0641 7.384 49.6041 6.936 49.2601 6.344C48.9241 5.744 48.7561 5.008 48.7561 4.136C48.7561 3.272 48.9281 2.536 49.2721 1.928C49.6241 1.312 50.0881 0.844 50.6641 0.524C51.2401 0.196 51.8761 0.0319996 52.5721 0.0319996C53.1401 0.0319996 53.6281 0.136 54.0361 0.344C54.4441 0.552 54.7761 0.787999 55.0321 1.052L54.1081 2.18C53.9081 2.004 53.6961 1.856 53.4721 1.736C53.2481 1.616 52.9681 1.556 52.6321 1.556C52.0241 1.556 51.5281 1.78 51.1441 2.228C50.7601 2.676 50.5681 3.292 50.5681 4.076C50.5681 4.876 50.7521 5.5 51.1201 5.948C51.4881 6.396 52.0361 6.62 52.7641 6.62C52.9241 6.62 53.0801 6.6 53.2321 6.56C53.3841 6.52 53.5081 6.46 53.6041 6.38V5.036H52.3081V3.596H55.1641V7.196C54.8921 7.46 54.5281 7.684 54.0721 7.868C53.6241 8.052 53.1281 8.144 52.5841 8.144ZM65.9604 8.144C65.2564 8.144 64.6364 7.98 64.1004 7.652C63.5724 7.324 63.1564 6.856 62.8524 6.248C62.5564 5.632 62.4084 4.9 62.4084 4.052C62.4084 3.196 62.5564 2.472 62.8524 1.88C63.1564 1.28 63.5724 0.824 64.1004 0.512C64.6364 0.192 65.2564 0.0319996 65.9604 0.0319996C66.6644 0.0319996 67.2804 0.192 67.8084 0.512C68.3444 0.824 68.7604 1.28 69.0564 1.88C69.3604 2.48 69.5124 3.204 69.5124 4.052C69.5124 4.9 69.3604 5.632 69.0564 6.248C68.7604 6.856 68.3444 7.324 67.8084 7.652C67.2804 7.98 66.6644 8.144 65.9604 8.144ZM65.9604 6.62C66.4964 6.62 66.9204 6.388 67.2324 5.924C67.5444 5.46 67.7004 4.836 67.7004 4.052C67.7004 3.268 67.5444 2.656 67.2324 2.216C66.9204 1.776 66.4964 1.556 65.9604 1.556C65.4244 1.556 65.0004 1.776 64.6884 2.216C64.3764 2.656 64.2204 3.268 64.2204 4.052C64.2204 4.836 64.3764 5.46 64.6884 5.924C65.0004 6.388 65.4244 6.62 65.9604 6.62ZM80.1636 8.144C79.4596 8.144 78.8396 7.98 78.3036 7.652C77.7756 7.324 77.3596 6.856 77.0556 6.248C76.7596 5.632 76.6116 4.9 76.6116 4.052C76.6116 3.196 76.7596 2.472 77.0556 1.88C77.3596 1.28 77.7756 0.824 78.3036 0.512C78.8396 0.192 79.4596 0.0319996 80.1636 0.0319996C80.8676 0.0319996 81.4836 0.192 82.0116 0.512C82.5476 0.824 82.9636 1.28 83.2596 1.88C83.5636 2.48 83.7156 3.204 83.7156 4.052C83.7156 4.9 83.5636 5.632 83.2596 6.248C82.9636 6.856 82.5476 7.324 82.0116 7.652C81.4836 7.98 80.8676 8.144 80.1636 8.144ZM80.1636 6.62C80.6996 6.62 81.1236 6.388 81.4356 5.924C81.7476 5.46 81.9036 4.836 81.9036 4.052C81.9036 3.268 81.7476 2.656 81.4356 2.216C81.1236 1.776 80.6996 1.556 80.1636 1.556C79.6276 1.556 79.2036 1.776 78.8916 2.216C78.5796 2.656 78.4236 3.268 78.4236 4.052C78.4236 4.836 78.5796 5.46 78.8916 5.924C79.2036 6.388 79.6276 6.62 80.1636 6.62ZM91.1867 8V0.176H93.3947C94.1947 0.176 94.8867 0.312 95.4707 0.584C96.0547 0.855999 96.5067 1.28 96.8267 1.856C97.1547 2.424 97.3187 3.156 97.3187 4.052C97.3187 4.948 97.1587 5.688 96.8387 6.272C96.5187 6.856 96.0707 7.292 95.4947 7.58C94.9267 7.86 94.2587 8 93.4907 8H91.1867ZM92.9507 6.572H93.2867C93.7347 6.572 94.1227 6.492 94.4507 6.332C94.7867 6.172 95.0467 5.908 95.2307 5.54C95.4147 5.172 95.5067 4.676 95.5067 4.052C95.5067 3.428 95.4147 2.94 95.2307 2.588C95.0467 2.228 94.7867 1.976 94.4507 1.832C94.1227 1.68 93.7347 1.604 93.2867 1.604H92.9507V6.572ZM113.206 8V0.176H115.414C116.214 0.176 116.906 0.312 117.49 0.584C118.074 0.855999 118.526 1.28 118.846 1.856C119.174 2.424 119.338 3.156 119.338 4.052C119.338 4.948 119.178 5.688 118.858 6.272C118.538 6.856 118.09 7.292 117.514 7.58C116.946 7.86 116.278 8 115.51 8H113.206ZM114.97 6.572H115.306C115.754 6.572 116.142 6.492 116.47 6.332C116.806 6.172 117.066 5.908 117.25 5.54C117.434 5.172 117.526 4.676 117.526 4.052C117.526 3.428 117.434 2.94 117.25 2.588C117.066 2.228 116.806 1.976 116.47 1.832C116.142 1.68 115.754 1.604 115.306 1.604H114.97V6.572ZM128.542 4.04L128.35 4.76H130.018L129.838 4.04C129.734 3.648 129.626 3.232 129.514 2.792C129.41 2.352 129.306 1.928 129.202 1.52H129.154C129.058 1.936 128.958 2.364 128.854 2.804C128.758 3.236 128.654 3.648 128.542 4.04ZM125.71 8L128.158 0.176H130.282L132.73 8H130.858L130.378 6.14H127.99L127.51 8H125.71ZM142.648 8.144C141.944 8.144 141.324 7.98 140.788 7.652C140.26 7.324 139.844 6.856 139.54 6.248C139.244 5.632 139.096 4.9 139.096 4.052C139.096 3.196 139.244 2.472 139.54 1.88C139.844 1.28 140.26 0.824 140.788 0.512C141.324 0.192 141.944 0.0319996 142.648 0.0319996C143.352 0.0319996 143.968 0.192 144.496 0.512C145.032 0.824 145.448 1.28 145.744 1.88C146.048 2.48 146.2 3.204 146.2 4.052C146.2 4.9 146.048 5.632 145.744 6.248C145.448 6.856 145.032 7.324 144.496 7.652C143.968 7.98 143.352 8.144 142.648 8.144ZM142.648 6.62C143.184 6.62 143.608 6.388 143.92 5.924C144.232 5.46 144.388 4.836 144.388 4.052C144.388 3.268 144.232 2.656 143.92 2.216C143.608 1.776 143.184 1.556 142.648 1.556C142.112 1.556 141.688 1.776 141.376 2.216C141.064 2.656 140.908 3.268 140.908 4.052C140.908 4.836 141.064 5.46 141.376 5.924C141.688 6.388 142.112 6.62 142.648 6.62Z" fill="#57656F"/>
</svg>
