<svg width="16" height="20" viewBox="0 0 16 20" fill="none" xmlns="http://www.w3.org/2000/svg">
<path fill-rule="evenodd" clip-rule="evenodd" d="M14.1353 19.937H0.19423C0.0870151 19.937 0 19.85 0 19.7428V11.3209C0 11.2137 0.0870151 11.1267 0.19423 11.1267H14.1353C14.2425 11.1267 14.3295 11.2137 14.3295 11.3209V19.7428C14.3295 19.85 14.2425 19.937 14.1353 19.937ZM0.388072 19.5489H13.9414V11.5152H0.388072V19.5489Z" fill="#57656F"/>
<path fill-rule="evenodd" clip-rule="evenodd" d="M14.1352 11.5153H0.194144C0.126552 11.5153 0.0640102 11.4803 0.0286604 11.4228C-0.00668953 11.3654 -0.00940877 11.2939 0.0208911 11.2337L1.43605 8.42626C1.46907 8.361 1.53627 8.31982 1.60969 8.31982H3.35893C3.46614 8.31982 3.55316 8.40645 3.55316 8.51367C3.55316 8.62088 3.46614 8.7079 3.35893 8.7079H1.72895L0.509186 11.1268H13.8202L12.6004 8.7079H10.9704C10.8632 8.7079 10.7762 8.62088 10.7762 8.51367C10.7762 8.40645 10.8632 8.31982 10.9704 8.31982H12.7197C12.7931 8.31982 12.8599 8.361 12.8929 8.42626L14.3088 11.2337C14.3391 11.2939 14.336 11.3654 14.3007 11.4228C14.2653 11.4803 14.2028 11.5153 14.1352 11.5153Z" fill="#57656F"/>
<path fill-rule="evenodd" clip-rule="evenodd" d="M11.7265 10.1945H2.60317C2.49595 10.1945 2.40894 10.1078 2.40894 10.0006C2.40894 9.89341 2.49595 9.8064 2.60317 9.8064H11.7265C11.8338 9.8064 11.9204 9.89341 11.9204 10.0006C11.9204 10.1078 11.8338 10.1945 11.7265 10.1945Z" fill="#57656F"/>
<path fill-rule="evenodd" clip-rule="evenodd" d="M10.9702 10.1944H3.35913C3.25191 10.1944 3.16528 10.1077 3.16528 10.0005V3.49111C3.16528 3.38389 3.25191 3.29688 3.35913 3.29688H7.1637C7.16565 3.29688 7.1672 3.29688 7.16914 3.29688C7.17031 3.29688 7.17108 3.29688 7.17225 3.29688L10.0476 3.40642C10.1475 3.41031 10.2279 3.48877 10.2341 3.58822L10.3013 4.65804C10.3017 4.66192 10.3017 4.6662 10.3017 4.67008C10.3017 4.74816 10.2547 4.81886 10.182 4.84916L8.07231 5.72941C7.93091 5.78846 7.82098 5.89917 7.76232 6.04212C7.70522 6.18041 7.70366 6.33114 7.75688 6.46904C7.76154 6.47759 7.76543 6.48691 7.76854 6.49623C7.82603 6.62481 7.92547 6.72193 8.04357 6.77903C8.18691 6.84818 8.35783 6.85789 8.51555 6.79224L10.8646 5.81215C10.8968 5.79895 10.9318 5.79429 10.9667 5.79934L10.9978 5.80361C11.0491 5.81099 11.0926 5.83741 11.1225 5.87509C11.1318 5.88674 11.14 5.89995 11.1466 5.91393C11.1586 5.93996 11.1652 5.9687 11.1645 5.99862V10.0005C11.1645 10.1077 11.0778 10.1944 10.9702 10.1944ZM3.55336 9.8063H10.7764V6.26976L8.66471 7.1504C8.60373 7.17604 8.5408 7.19468 8.47786 7.20712C8.20711 7.25995 7.93091 7.19235 7.71648 7.03231C7.58246 6.93247 7.47292 6.7969 7.40416 6.63181C7.30549 6.39523 7.3051 6.13302 7.403 5.89451C7.50128 5.65599 7.68579 5.46992 7.92276 5.37125L9.90507 4.54422L9.85768 3.7875L7.16137 3.68495H3.55336V9.8063Z" fill="#57656F"/>
<path fill-rule="evenodd" clip-rule="evenodd" d="M12.4222 17.4898H1.90736C1.80015 17.4898 1.71313 17.4027 1.71313 17.2955V13.7683C1.71313 13.6611 1.80015 13.5745 1.90736 13.5745H12.4222C12.5294 13.5745 12.6164 13.6611 12.6164 13.7683V17.2955C12.6164 17.4027 12.5294 17.4898 12.4222 17.4898ZM2.10121 17.1013H12.228V13.9625H2.10121V17.1013Z" fill="#57656F"/>
<path fill-rule="evenodd" clip-rule="evenodd" d="M8.29549 7.2247C8.1708 7.2247 8.0461 7.20023 7.92723 7.15129C7.68872 7.05339 7.50265 6.86888 7.40398 6.63191C7.30531 6.39534 7.30492 6.13313 7.40281 5.89462C7.50109 5.6561 7.68561 5.47003 7.92257 5.37136L9.90488 4.54433L9.85749 3.78761L7.1573 3.68506C7.08389 3.68234 7.01824 3.63805 6.98794 3.57085C6.95764 3.50364 6.96774 3.42518 7.01474 3.36807L7.98162 2.18793C8.45593 1.60951 10.1317 1.52638 11.9548 1.48754C12.0663 1.48521 12.1712 1.48287 12.2683 1.48054L12.1311 1.24281C12.062 1.12238 12.1032 0.967776 12.2236 0.89863L13.6127 0.09646C13.7328 0.0269256 13.8874 0.0684909 13.9569 0.188525L15.966 3.66835C15.9994 3.72623 16.0088 3.79421 15.9913 3.85947C15.9738 3.92474 15.9318 3.97912 15.8736 4.01292L14.4844 4.8147C14.3644 4.88423 14.2098 4.84306 14.1403 4.72263L14.117 4.68223C13.6209 5.36553 12.5771 6.41982 10.9638 6.1914L8.66453 7.15051C8.54566 7.20023 8.42058 7.2247 8.29549 7.2247ZM7.56247 3.31213L10.0474 3.40653C10.1473 3.41041 10.2277 3.48888 10.2339 3.58833L10.3011 4.65815C10.3062 4.74089 10.2584 4.81742 10.1822 4.84927L8.07213 5.72952C7.93073 5.78857 7.82079 5.89967 7.76214 6.04223C7.70348 6.18518 7.70348 6.34135 7.76253 6.48275C7.82118 6.62376 7.93228 6.73369 8.07485 6.79235C8.2178 6.85101 8.37396 6.85101 8.51536 6.79235L10.8644 5.81265C10.8974 5.79867 10.9339 5.79439 10.9693 5.79983C12.5258 6.0465 13.5032 4.91142 13.9025 4.31048L12.4893 1.8624C12.3359 1.86745 12.1603 1.87133 11.9633 1.87561C10.8166 1.90008 8.68201 1.94553 8.28228 2.43383L7.56247 3.31213ZM14.2995 4.2223L14.4083 4.4107L15.5616 3.74449L13.6889 0.500847L12.5355 1.16667L12.7651 1.56406C12.7663 1.56639 12.7674 1.56834 12.7686 1.57067L14.2957 4.21569C14.2972 4.21802 14.2984 4.21996 14.2995 4.2223Z" fill="#57656F"/>
</svg>
